Coordinates
version=1
nRows=11
nColumns=63
inDegrees=yes

Units are S.I. units (second, meters, Newtons, ...)
If the header above contains a line with 'inDegrees', this indicates whether rotational values are in degrees (yes) or radians (no).

endheader
time	pelvis_tilt	pelvis_list	pelvis_rotation	pelvis_tx	pelvis_ty	pelvis_tz	hip_flexion_r	hip_adduction_r	hip_rotation_r	knee_angle_r	knee_angle_r_beta	ankle_angle_r	subtalar_angle_r	mtp_angle_r	hip_flexion_l	hip_adduction_l	hip_rotation_l	knee_angle_l	knee_angle_l_beta	ankle_angle_l	subtalar_angle_l	mtp_angle_l	L5_S1_Flex_Ext	L5_S1_Lat_Bending	L5_S1_axial_rotation	L4_L5_Flex_Ext	L4_L5_Lat_Bending	L4_L5_axial_rotation	L3_L4_Flex_Ext	L3_L4_Lat_Bending	L3_L4_axial_rotation	L2_L3_Flex_Ext	L2_L3_Lat_Bending	L2_L3_axial_rotation	L1_L2_Flex_Ext	L1_L2_Lat_Bending	L1_L2_axial_rotation	L1_T12_Flex_Ext	L1_T12_Lat_Bending	L1_T12_axial_rotation	Abs_r3	Abs_r2	Abs_r1	Abs_t1	Abs_t2	neck_flexion	neck_bending	neck_rotation	arm_flex_r	arm_add_r	arm_rot_r	elbow_flex_r	pro_sup_r	wrist_flex_r	wrist_dev_r	arm_flex_l	arm_add_l	arm_rot_l	elbow_flex_l	pro_sup_l	wrist_flex_l	wrist_dev_l
      0.79245283	     -3.29115759	     -4.97027172	     89.91342814	      0.18177436	      0.94902338	      0.50595775	     -1.34626962	     -4.51719211	     -2.76266969	      7.01106215	      0.12236612	     19.44716114	      6.20302648	      0.00000000	     -0.43261485	      1.64811404	    -16.99732065	      9.40752454	      0.16419228	     25.09449379	     13.40464082	      0.00000000	     -0.05029077	     -0.37226747	     -0.44335877	     -0.09339499	     -0.49511573	     -0.47106870	     -0.08262271	     -0.90513112	     -0.47106870	     -0.05747732	     -0.90513112	     -0.38793893	     -0.04670001	     -0.75912782	     -0.36022900	     -0.02873615	     -0.57664230	     -0.33251908	     -0.35922195	     -4.21116403	     -2.46582848	      0.00000000	      0.00000000	     12.67948486	      0.21612309	      8.60479157	     38.75590621	     10.56181494	   -177.86915172	      0.26365747	      1.28937515	     25.53187857	    -23.13439220	     33.73627927	    -11.44795740	     68.36459463	     46.61819116	     89.18493707	    -18.77208231	    -10.17943064
      0.81132075	     -3.17666720	     -5.10697587	     90.61898420	      0.18049271	      0.94862993	      0.50598283	     -1.50610150	     -4.36382452	     -2.76608083	      6.60719709	      0.11531734	     19.35989232	      5.49377856	      0.00000000	     -0.14497668	      1.43919944	    -16.94290556	      9.82127318	      0.17141355	     25.06319648	     13.80959624	      0.00000000	     -0.03643249	     -0.33687619	     -0.61671665	     -0.06765877	     -0.44804533	     -0.65526144	     -0.05985493	     -0.81908077	     -0.65526144	     -0.04163869	     -0.81908077	     -0.53962707	     -0.03383121	     -0.68695793	     -0.50108228	     -0.02081752	     -0.52182122	     -0.46253749	     -0.26023361	     -3.81081084	     -3.42999300	      0.00000000	      0.00000000	     13.02506360	      0.18533539	     10.22341105	     38.70507570	     10.36051507	   -185.63758885	      0.29522884	      1.23408411	     34.41894077	    -23.40722629	     31.91184157	    -12.23729378	     63.65696077	     49.78915984	     89.23805188	    -16.30727400	     -8.70603366
      0.83018868	     -3.20083649	     -5.03606226	     91.07409062	      0.18018111	      0.94884043	      0.50621191	     -1.76870763	     -4.32890741	     -2.78281172	      6.33082066	      0.11049366	     19.18408317	      4.98273976	      0.00000000	     -0.13914550	      1.38436688	    -16.90981278	     10.08410439	      0.17600082	     24.64390091	     13.80045747	      0.00000000	     -0.04501197	     -0.33719777	     -0.72022555	     -0.08359174	     -0.44847303	     -0.76523964	     -0.07395017	     -0.81986265	     -0.76523964	     -0.05144418	     -0.81986265	     -0.63019735	     -0.04179812	     -0.68761369	     -0.58518326	     -0.02571984	     -0.52231934	     -0.54016916	     -0.32151602	     -3.81444858	     -4.00567841	      0.00000000	      0.00000000	     12.92380469	      0.04257387	     10.45729563	     38.75334457	     10.49010488	   -189.33148161	      0.29182317	      1.09749518	     39.86165107	    -23.84832158	     31.02660162	    -13.05621848	     61.42513364	     52.46769351	     89.23319222	    -14.69876816	     -7.12178541
      0.84905660	     -3.24771445	     -4.91397425	     91.59703855	      0.18009641	      0.94927958	      0.50647745	     -2.11248236	     -4.29309776	     -2.83918429	      6.01254227	      0.10493866	     18.94845948	      4.47904784	      0.00000000	     -0.15252849	      1.34421318	    -16.44606677	     10.37874027	      0.18114319	     24.30029458	     13.50653500	      0.00000000	     -0.05407579	     -0.33916593	     -0.88629623	     -0.10042415	     -0.45109069	     -0.94168974	     -0.08884111	     -0.82464804	     -0.94168974	     -0.06180322	     -0.82464804	     -0.77550920	     -0.05021478	     -0.69162716	     -0.72011569	     -0.03089891	     -0.52536803	     -0.66472217	     -0.38625795	     -3.83671283	     -4.92931373	      0.00000000	      0.00000000	     12.51232638	      0.01455334	     11.33826159	     38.93926176	     10.82156797	   -193.39508868	      0.30168211	      0.97760259	     45.83676910	    -24.12583215	     29.73919357	    -14.28081146	     58.36318388	     55.79189353	     89.25554343	    -11.96777172	     -5.15014866
      0.86792453	     -3.43549211	     -4.72202486	     92.17826222	      0.18017840	      0.95006294	      0.50681497	     -2.52503118	     -4.37423982	     -2.96403561	      5.74394601	      0.10025077	     18.73950056	      3.85374735	      0.00000000	     -0.26686611	      1.49472892	    -15.41681897	     10.52457904	      0.18368856	     23.87149440	     12.70899523	      0.00000000	     -0.06860669	     -0.35843977	     -1.14771382	     -0.12740948	     -0.47672489	     -1.21944593	     -0.11271393	     -0.87151045	     -1.21944593	     -0.07841058	     -0.87151045	     -1.00424959	     -0.06370817	     -0.73093037	     -0.93251748	     -0.03920186	     -0.55522320	     -0.86078536	     -0.49005072	     -4.05474233	     -6.38323994	      0.00000000	      0.00000000	     11.94798245	      0.00285291	     12.58206575	     39.40705194	     11.45655046	   -198.52762262	      0.31673225	      0.84165859	     52.33575939	    -24.31566204	     27.45665262	    -16.13835011	     53.08280294	     60.56442975	     89.28530967	     -7.46255773	     -2.13083259
      0.88679245	     -3.66790914	     -4.49827014	     92.92223170	      0.18031618	      0.95111217	      0.50734928	     -2.97723065	     -4.47623119	     -3.37500079	      5.50644531	      0.09610560	     18.51722949	      3.37062081	      0.00000000	     -0.35352137	      1.66468189	    -14.19886255	     10.73540688	      0.18736820	     23.57396278	     12.01946059	      0.00000000	     -0.08748545	     -0.37976200	     -1.55109411	     -0.16246923	     -0.50508346	     -1.64803749	     -0.14372985	     -0.92335333	     -1.64803749	     -0.09998712	     -0.92335333	     -1.35720734	     -0.08123899	     -0.77441068	     -1.26026396	     -0.04998919	     -0.58825134	     -1.16332058	     -0.62489984	     -4.29594372	     -8.62672010	      0.00000000	      0.00000000	     11.33252775	      0.15545878	     14.93423590	     40.30132010	     12.53787084	   -204.73645105	      0.34952572	      0.70366355	     59.02366549	    -24.44434076	     23.84651742	    -18.36289802	     45.20408378	     66.81985910	     89.26953859	     -1.97677528	      1.62100771
      0.90566038	     -3.98836339	     -4.22911135	     93.64467693	      0.18076172	      0.95243968	      0.50796715	     -3.43555025	     -4.65156709	     -3.85189200	      5.37213387	      0.09376142	     18.36103462	      2.96060661	      0.00000000	     -0.54341228	      1.93324549	    -12.86408141	     10.81723006	      0.18879628	     23.17661879	     11.20354374	      0.00000000	     -0.10787668	     -0.41512358	     -2.05139728	     -0.20033778	     -0.55211436	     -2.17960961	     -0.17723060	     -1.00933147	     -2.17960961	     -0.12329226	     -1.00933147	     -1.79497262	     -0.10017428	     -0.84652000	     -1.66676029	     -0.06164073	     -0.64302642	     -1.53854796	     -0.77055233	     -4.69596095	    -11.40925627	      0.00000000	      0.00000000	     10.61533330	      0.29388477	     17.61013468	     41.62157946	     14.17796245	   -210.90954858	      0.41333648	      0.59141183	     64.76713526	    -24.53052327	     18.91104901	    -20.29450083	     35.02183116	     74.18787001	     89.16514592	      3.96060408	      5.90172239
      0.92452830	     -4.38272891	     -3.88144383	     94.39885489	      0.18169497	      0.95419637	      0.50921782	     -3.92216686	     -4.87007274	     -4.42764526	      5.30041688	      0.09250973	     18.16323313	      2.69228115	      0.00000000	     -0.72763481	      2.18198869	    -11.91109320	     11.06891531	      0.19318902	     22.85090033	     10.88429851	      0.00000000	     -0.14136959	     -0.46512250	     -2.64787387	     -0.26253746	     -0.61861293	     -2.81336598	     -0.23225609	     -1.13089885	     -2.81336598	     -0.16157130	     -1.13089885	     -2.31688963	     -0.13127580	     -0.94847780	     -2.15139752	     -0.08077858	     -0.72047475	     -1.98590540	     -1.00978882	     -5.26155875	    -14.72668009	      0.00000000	      0.00000000	      9.70755681	      0.62470126	     20.94608932	     43.38442492	     16.41226934	   -215.84817077	      0.52502590	      0.52317811	     68.29981816	    -24.58730983	     13.53006479	    -22.00788509	     24.83764524	     82.15664286	     88.84101860	      7.22698403	      8.66222657
      0.94339623	     -4.87191556	     -3.40613886	     94.98934884	      0.18321773	      0.95652868	      0.51106365	     -4.41445826	     -5.16400300	     -5.05820835	      5.37565560	      0.09382289	     17.94027286	      2.49667761	      0.00000000	     -1.06891739	      2.49552818	    -11.24031755	     11.21924363	      0.19581274	     22.19500849	     10.61221880	      0.00000000	     -0.18939642	     -0.53524197	     -3.29331486	     -0.35172810	     -0.71187182	     -3.49914703	     -0.31115939	     -1.30138732	     -3.49914703	     -0.21646117	     -1.30138732	     -2.88165050	     -0.17587352	     -1.09146542	     -2.67581832	     -0.10822112	     -0.82908981	     -2.46998614	     -1.35283972	     -6.05476417	    -18.31642924	      0.00000000	      0.00000000	      8.65671445	      0.77705434	     24.07959745	     45.55851970	     19.12955997	   -218.66384932	      0.66379298	      0.47809033	     69.26638175	    -24.63322834	      8.09091723	    -23.49050053	     14.94027469	     90.39390674	     87.78580497	      8.79992068	     10.57911108
      0.96226415	     -5.34899411	     -2.81182335	     95.54033029	      0.18465271	      0.95899262	      0.51340764	     -4.95348837	     -5.45480616	     -5.64110443	      5.53529271	      0.09660908	     17.75566252	      2.33923778	      0.00000000	     -1.49677602	      2.77523847	    -10.77494197	     11.38478138	      0.19870192	     21.67220982	     10.62456987	      0.00000000	     -0.25550698	     -0.60153237	     -3.93898680	     -0.47450202	     -0.80003805	     -4.18517348	     -0.41977242	     -1.46256580	     -4.18517348	     -0.29201893	     -1.46256580	     -3.44661345	     -0.23726378	     -1.22664481	     -3.20042678	     -0.14599669	     -0.93177364	     -2.95424010	     -1.82506083	     -6.80465447	    -21.90746291	      0.00000000	      0.00000000	      7.45833357	      0.58061487	     27.19418879	     48.01209710	     21.87372685	   -221.07299825	      0.91843608	      0.45898797	     69.57094110	    -24.65873566	      3.34447218	    -24.99704481	      6.62821865	     98.31957882	     83.25446292	      7.40758812	     12.03845182
      0.98113208	     -5.76474190	     -2.17257734	     96.13570252	      0.18565783	      0.96110566	      0.51580446	     -5.53881504	     -5.69511671	     -6.30555091	      5.72533514	      0.09992595	     17.67927004	      2.29271234	      0.00000000	     -1.92861983	      2.98674404	    -10.29287616	     11.57134572	      0.20195808	     21.35253479	     10.90706747	      0.00000000	     -0.33164400	     -0.65873913	     -4.56018461	     -0.61589607	     -0.87612304	     -4.84519615	     -0.54485793	     -1.60165831	     -4.84519615	     -0.37903593	     -1.60165831	     -3.99016154	     -0.30796462	     -1.34330083	     -3.70515000	     -0.18950138	     -1.02038691	     -3.42013846	     -2.36889993	     -7.45178874	    -25.36237875	      0.00000000	      0.00000000	      6.22341895	      0.34391973	     30.12319147	     50.80141032	     24.31829511	   -224.14739305	      1.74427807	      0.45858151	     69.69546277	    -24.67068414	     -0.44492327	    -26.61579026	     -0.17031102	    105.74454778	     74.42018123	      3.58004566	     14.26457963
